<svg xmlns="http://www.w3.org/2000/svg" width="200" height="40" viewBox="0,0,200,40"><path fill="#111" d="M51.05 24.61L51.19 24.74L51.07 24.62Q51.16 28.98 50.44 33.13L50.38 33.07L50.34 33.04Q52.69 32.57 55.77 32.45L55.66 32.33L55.71 32.38Q57.00 32.54 58.07 31.53L58.05 31.51L58.17 31.63Q59.17 30.56 59.17 29.22L59.15 29.20L59.13 29.18Q59.16 28.91 59.13 28.65L59.13 28.65L59.06 28.58Q58.91 25.65 56.66 24.81L56.73 24.88L56.76 24.91Q56.02 24.62 55.33 24.70L55.25 24.62L55.33 24.69Q54.16 24.51 53.13 24.55L53.24 24.66L53.19 24.62Q52.06 24.58 51.03 24.58ZM49.87 14.21L49.80 14.14L49.87 14.22Q50.67 17.45 50.93 21.83L50.97 21.86L50.96 21.85Q52.39 21.95 55.05 21.99L55.12 22.05L55.20 22.13Q58.15 22.19 58.50 18.65L58.37 18.53L58.33 18.49Q58.65 16.68 57.25 15.84L57.13 15.73L57.18 15.78Q56.20 15.18 51.79 14.53L51.88 14.62L51.88 14.63Q50.75 14.41 49.84 14.18ZM46.22 37.09L46.18 37.06L46.27 37.14Q48.76 30.50 48.49 23.11L48.48 23.10L48.45 23.07Q48.10 15.71 45.17 9.24L45.20 9.28L45.19 9.27Q49.00 11.82 55.22 12.06L55.28 12.12L55.19 12.03Q61.50 12.37 61.85 15.26L61.82 15.24L61.86 15.27Q62.12 17.97 60.71 20.63L60.78 20.71L60.80 20.72Q60.03 22.20 58.43 22.89L58.41 22.87L58.41 22.87Q62.11 23.60 62.34 28.96L62.29 28.92L62.32 28.95Q62.25 29.91 62.18 31.32L62.30 31.44L62.28 31.42Q62.13 32.64 61.20 33.57L61.34 33.71L61.17 33.55Q60.38 34.62 59.05 34.78L59.02 34.75L59.04 34.76Q57.60 34.89 56.53 34.89L56.43 34.78L56.45 34.80Q50.76 34.83 46.23 37.11ZM58.95 37.34L58.94 37.33L58.95 37.34Q59.88 37.39 61.74 37.51L61.86 37.62L61.91 37.67Q63.31 37.71 64.42 36.83L64.36 36.77L64.26 36.67Q65.10 35.80 64.99 34.24L65.02 34.28L65.02 34.28Q64.86 33.24 64.14 29.77L64.20 29.84L64.23 29.87Q63.58 26.66 61.71 25.18L61.62 25.09L61.30 24.35L61.31 24.35Q62.91 22.88 63.48 19.11L63.56 19.19L63.52 19.15Q63.67 18.00 63.59 16.59L63.66 16.65L63.62 16.62Q63.61 15.35 62.50 14.51L62.42 14.43L62.53 14.54Q62.14 14.26 62.03 14.23L61.95 14.15L62.05 14.24Q61.68 13.61 60.84 12.81L60.85 12.82L60.93 12.90Q59.31 11.74 55.09 11.55L55.07 11.53L55.21 11.67Q48.45 11.27 44.45 8.38L44.63 8.55L44.53 8.45Q47.82 15.47 48.12 23.01L48.04 22.93L48.21 23.10Q48.38 30.76 45.56 37.69L45.62 37.76L47.62 36.75L47.63 36.76Q47.23 37.88 46.74 39.02L46.86 39.14L46.87 39.15Q51.04 37.16 56.07 37.16L56.13 37.22L56.22 37.32Q57.57 37.26 59.02 37.41ZM56.89 26.87L56.93 26.91L56.83 26.81Q57.69 26.87 58.60 27.32L58.43 27.15L58.59 27.31Q58.60 27.54 58.75 28.61L58.81 28.67L58.83 28.69Q59.04 30.08 58.10 31.13L57.97 30.99L58.12 31.14Q57.19 32.19 55.78 32.08L55.77 32.07L54.19 32.09L54.25 32.14Q53.48 32.17 52.75 32.29L52.79 32.32L52.72 32.26Q53.04 30.44 53.12 26.98L53.02 26.88L53.15 27.01Q53.85 26.99 55.11 26.95L55.02 26.86L55.06 26.90Q56.21 26.76 56.82 26.80ZM55.76 17.17L55.92 17.33L56.24 17.27L56.28 17.31Q56.53 17.33 56.72 17.37L56.75 17.40L56.94 17.21L57.41 17.49L58.05 17.60L58.05 17.60Q58.06 17.76 58.06 18.06L58.02 18.03L58.14 18.68L58.09 18.63Q58.14 19.93 57.26 20.86L57.13 20.73L57.15 20.75Q56.28 21.69 55.07 21.69L55.00 21.63L55.18 21.81Q53.96 21.62 53.96 21.62L54.09 21.74L54.12 21.78Q52.74 21.69 53.08 21.69L53.13 21.73L52.97 21.58Q52.98 20.10 52.67 17.05L52.63 17.01L52.80 17.18Q54.37 17.31 55.90 17.31Z"/><path fill="#333" d="M175.37 35.33L175.41 35.36L175.44 35.40Q172.44 31.48 169.81 22.84L169.79 22.82L169.86 22.89Q169.20 20.74 168.40 18.61L168.32 18.53L165.53 27.39L165.44 27.30Q163.74 32.34 161.34 35.57L161.19 35.42L161.34 35.57Q160.51 35.65 158.87 35.81L158.82 35.75L158.85 35.79Q158.90 34.54 158.90 33.28L158.90 33.29L158.82 33.20Q158.89 27.25 156.14 21.12L156.11 21.09L156.10 21.08Q152.99 14.20 147.13 9.21L147.15 9.24L147.16 9.25Q149.39 10.03 151.75 10.57L151.62 10.43L151.66 10.48Q160.27 18.85 161.56 29.82L161.61 29.86L161.63 29.89Q163.28 26.58 164.73 21.22L164.65 21.14L164.66 21.15Q166.77 13.78 167.26 12.37L167.11 12.22L169.53 12.40L169.46 12.33Q170.12 14.32 170.77 16.64L170.91 16.77L172.12 21.18L172.00 21.06Q173.55 26.50 174.96 29.73L175.08 29.86L174.96 29.74Q176.64 18.14 184.56 10.79L184.50 10.73L184.54 10.76Q186.14 10.50 189.10 9.85L189.00 9.75L189.14 9.89Q183.69 14.07 180.65 20.20L180.62 20.17L180.69 20.24Q177.66 26.54 177.66 33.32L177.69 33.35L177.64 33.29Q177.71 34.47 177.79 35.61L177.65 35.48L176.48 35.33L176.61 35.46Q175.96 35.35 175.39 35.35ZM181.62 38.22L181.76 38.37L181.73 38.34Q180.35 34.63 180.46 30.75L180.62 30.90L180.51 30.79Q180.88 19.29 190.25 11.03L190.22 11.01L190.14 10.92Q189.37 11.33 187.43 11.86L187.38 11.81L187.30 11.74Q188.29 10.94 190.20 9.15L190.15 9.10L190.15 9.10Q187.59 9.97 184.66 10.46L184.56 10.37L184.59 10.40Q177.09 17.52 175.19 27.00L175.21 27.02L175.13 26.94Q174.58 25.33 171.73 13.87L171.80 13.94L171.69 13.83Q171.28 13.91 170.32 13.91L170.38 13.97L170.11 12.93L170.18 13.00Q170.04 12.45 169.81 11.95L169.70 11.84L166.92 11.95L166.89 11.92Q165.93 14.24 164.66 19.36L164.80 19.51L164.69 19.39Q163.40 24.50 162.41 26.97L162.44 27.00L162.52 27.08Q160.87 19.12 155.32 12.80L155.32 12.80L155.32 12.80Q154.90 12.80 153.95 12.61L153.93 12.59L153.90 12.56Q153.29 11.83 151.73 10.20L151.53 10.00L151.55 10.02Q148.27 9.33 146.10 8.53L146.03 8.46L146.05 8.48Q151.83 13.27 155.10 19.47L154.95 19.32L155.10 19.47Q158.53 26.06 158.53 33.06L158.57 33.11L158.55 33.09Q158.51 34.61 158.32 36.20L158.39 36.27L158.26 36.15Q158.49 36.14 158.94 36.05L159.00 36.11L159.00 36.11Q159.39 35.94 159.62 35.94L159.68 36.00L159.72 37.07L159.59 36.94Q159.57 37.38 159.65 37.92L159.70 37.97L159.70 37.96Q160.80 37.85 163.08 37.70L163.22 37.83L163.18 37.79Q166.72 32.30 169.46 22.90L169.59 23.03L169.51 22.95Q172.36 31.83 175.33 35.78L175.33 35.78L175.29 35.74Q175.86 35.85 176.70 35.97L176.70 35.97L176.64 35.91Q177.48 36.95 178.55 38.01L178.43 37.89L178.49 37.95Q179.19 37.92 181.58 38.19Z"/><path fill="#333" d="M22.54 14.27L22.55 14.28L22.67 14.40Q23.50 18.62 23.65 22.20L23.67 22.22L23.63 22.17Q24.69 22.21 25.75 22.21L25.79 22.25L28.01 22.26L27.95 22.20Q29.11 22.29 29.99 20.88L29.86 20.76L29.99 20.89Q30.63 19.62 30.75 18.44L30.72 18.42L30.71 18.41Q31.10 15.41 26.88 14.92L26.93 14.97L26.97 15.01Q25.16 14.84 22.53 14.27ZM23.73 25.02L23.61 24.90L23.64 24.92Q23.60 31.17 22.46 35.59L22.45 35.58L22.44 35.57Q21.09 36.08 18.77 37.15L18.73 37.11L18.65 37.03Q21.13 30.49 20.87 23.22L20.71 23.07L20.70 23.06Q20.49 15.77 17.71 9.33L17.71 9.33L17.75 9.37Q21.87 12.12 28.12 12.12L28.16 12.16L27.98 11.98Q34.16 12.11 34.31 15.58L34.30 15.56L34.29 15.55Q34.39 18.02 33.40 20.68L33.34 20.62L33.45 20.73Q32.98 21.78 32.02 23.00L31.94 22.91L32.02 22.99Q30.65 24.55 28.10 24.82L28.20 24.92L28.19 24.91Q25.97 24.98 23.73 25.01ZM29.84 27.25L29.86 27.27L29.79 27.20Q34.02 27.50 35.27 22.71L35.22 22.65L35.24 22.67Q36.12 18.94 35.96 16.92L35.93 16.89L35.96 16.92Q35.80 15.35 35.04 14.36L35.07 14.39L35.04 14.36Q34.82 14.15 34.33 13.92L34.20 13.79L34.19 13.78Q34.38 13.81 33.77 13.05L33.66 12.95L33.59 12.87Q32.19 11.70 28.23 11.70L28.10 11.57L28.12 11.59Q21.31 11.67 17.08 8.51L17.07 8.49L16.98 8.41Q20.18 15.53 20.44 22.99L20.47 23.01L20.50 23.04Q20.86 30.79 18.19 37.87L18.14 37.81L18.16 37.84Q19.19 37.15 20.18 36.77L20.14 36.73L19.76 37.87L19.83 37.95Q19.57 38.45 19.31 39.02L19.42 39.13L19.30 39.02Q21.76 38.01 24.65 37.48L24.70 37.53L24.64 37.46Q25.42 31.88 25.49 27.16L25.62 27.29L25.52 27.19Q26.67 27.16 27.66 27.16L27.71 27.21L27.67 27.17Q29.06 27.23 29.86 27.27ZM28.82 17.24L28.81 17.23L28.90 17.32Q29.24 17.17 30.23 17.40L30.31 17.47L30.33 17.50Q30.38 17.66 30.42 17.96L30.40 17.94L30.48 18.03Q30.52 18.29 30.44 18.56L30.46 18.57L30.52 18.63Q30.30 19.75 29.58 20.62L29.63 20.68L29.55 20.60Q29.11 21.79 28.08 21.98L28.01 21.91L28.10 22.00Q27.23 21.85 25.59 21.85L25.58 21.85L25.65 21.91Q25.57 19.59 25.34 17.23L25.42 17.30L27.10 17.31L27.18 17.39Q27.94 17.31 28.81 17.24Z"/><path fill="#222" d="M113.07 34.76L113.18 34.86L113.10 34.78Q111.13 34.72 109.12 34.91L109.27 35.07L109.10 34.90Q109.82 29.72 109.82 24.88L109.84 24.91L109.88 24.94Q109.92 20.07 109.27 14.85L109.22 14.80L109.29 14.87Q104.64 14.41 101.45 12.74L101.51 12.80L100.70 10.96L100.81 11.08Q100.54 10.50 99.93 9.28L99.86 9.21L99.88 9.23Q104.92 11.87 110.94 12.06L111.05 12.18L110.93 12.06Q116.77 12.19 122.22 10.14L122.26 10.17L122.39 10.31Q121.62 11.67 120.97 13.50L120.93 13.45L120.97 13.50Q117.38 14.81 113.11 15.00L113.02 14.91L113.08 14.97Q112.85 19.95 112.85 24.90L112.91 24.96L112.81 24.86Q112.89 29.89 113.19 34.87ZM123.03 9.58L122.95 9.50L123.07 9.62Q117.14 11.79 110.93 11.60L111.01 11.68L110.88 11.55Q104.37 11.52 99.27 8.55L99.12 8.40L99.10 8.38Q99.92 9.73 101.21 13.00L101.26 13.05L101.30 13.09Q101.81 13.25 103.06 13.82L103.14 13.90L103.14 13.90Q103.45 14.67 103.79 16.19L103.77 16.17L103.77 16.17Q106.08 17.03 109.13 17.26L109.09 17.22L109.13 17.27Q109.54 20.98 109.54 24.75L109.50 24.72L109.43 24.65Q109.47 30.05 108.67 35.42L108.75 35.50L108.58 35.32Q110.36 35.32 110.89 35.32L110.98 35.40L110.91 35.33Q110.86 35.59 110.80 36.26L110.89 36.35L110.73 36.18Q110.68 36.86 110.68 37.20L110.83 37.35L110.84 37.36Q111.99 37.25 113.51 37.33L113.37 37.19L113.47 37.29Q114.30 37.24 116.13 37.40L116.13 37.39L116.17 37.43Q114.99 32.56 114.87 27.38L114.95 27.46L114.97 27.48Q114.67 22.01 115.21 17.10L115.27 17.16L115.30 17.19Q119.28 16.68 122.44 15.46L122.31 15.33L122.40 15.42Q123.02 12.96 124.05 10.90L124.16 11.01L124.06 10.91Q122.71 11.58 121.91 11.88L121.97 11.94L121.90 11.88Q122.33 10.59 122.90 9.45Z"/><path d="M15 37 C116 31,101 15,181 15" stroke="#222" fill="none"/><path fill="#444" d="M84.34 27.12L75.05 17.06L75.10 17.11Q75.93 20.80 75.93 24.53L75.93 24.53L76.06 24.66Q75.96 30.53 73.90 36.09L73.87 36.06L73.82 36.02Q72.86 36.38 70.61 37.14L70.65 37.18L70.66 37.19Q73.35 31.27 73.35 24.57L73.49 24.72L73.48 24.70Q73.48 16.06 68.98 8.64L69.01 8.67L68.89 8.54Q69.40 8.79 70.09 9.21L70.03 9.15L70.01 9.13Q82.06 20.31 89.90 29.56L90.03 29.69L89.94 29.60Q89.77 27.29 89.77 24.85L89.76 24.84L89.63 24.71Q89.59 17.44 92.10 11.24L92.16 11.29L92.17 11.31Q94.55 10.83 96.15 10.14L96.01 10.01L96.20 10.19Q92.80 16.28 92.50 23.43L92.40 23.34L92.46 23.39Q92.16 30.75 95.13 36.91L95.08 36.87L95.16 36.94Q94.67 36.95 94.25 36.76L94.24 36.75L94.07 36.58Q89.63 32.74 84.41 27.19L84.35 27.13ZM97.88 40.23L97.86 40.22L97.79 40.15Q98.26 40.31 98.68 40.50L98.64 40.46L99.46 40.79L99.44 40.77Q94.45 33.99 94.45 24.62L94.44 24.61L94.26 24.44Q94.33 17.27 97.64 11.03L97.64 11.03L97.61 11.00Q97.09 11.35 95.68 11.96L95.61 11.89L95.54 11.82Q96.06 11.12 96.90 9.56L96.87 9.53L96.85 9.52Q94.37 10.38 91.93 10.95L92.01 11.03L91.89 10.91Q89.37 17.49 89.37 24.92L89.23 24.77L89.28 24.82Q89.20 26.61 89.39 28.59L89.42 28.61L89.54 28.74Q84.94 23.10 80.18 18.50L80.04 18.36L70.09 8.79L70.02 8.72Q69.37 8.33 68.15 7.76L68.25 7.86L68.21 7.83Q73.10 15.58 73.10 24.67L72.98 24.55L73.09 24.66Q73.11 31.79 70.02 37.81L69.97 37.76L69.97 37.75Q70.31 37.68 71.95 37.07L72.00 37.12L71.84 36.97Q71.71 37.94 70.87 39.42L70.88 39.43L70.87 39.42Q72.15 38.83 75.61 38.03L75.65 38.06L75.64 38.06Q77.99 31.96 77.99 24.77L77.82 24.59L77.89 24.66Q77.97 22.65 77.74 20.52L77.66 20.43L77.69 20.47Q89.27 33.38 97.88 40.23Z"/><path d="M16 37 C100 27,83 26,180 16" stroke="#444" fill="none"/><path fill="#444" d="M140.83 15.21L140.65 15.04L140.72 15.10Q136.41 15.10 132.72 14.11L132.66 14.05L132.66 14.05Q134.22 18.66 134.41 23.49L134.37 23.45L134.34 23.42Q134.69 28.37 133.47 32.98L133.49 33.00L133.30 32.81Q136.16 32.24 139.66 32.09L139.68 32.11L139.67 32.10Q143.62 31.94 145.41 29.51L145.34 29.43L145.49 29.58Q147.04 27.56 147.23 23.45L147.18 23.39L147.23 23.44Q147.13 21.51 146.67 19.80L146.71 19.84L146.83 19.96Q145.50 15.16 140.77 15.16ZM128.90 37.21L128.73 37.03L128.77 37.07Q131.73 31.47 131.73 24.77L131.74 24.78L131.76 24.80Q131.76 16.27 127.46 9.27L127.48 9.29L127.50 9.30Q132.72 11.94 140.98 12.13L140.90 12.05L140.90 12.05Q149.76 12.23 150.10 19.39L150.23 19.51L150.20 19.48Q150.17 22.04 150.13 23.49L150.31 23.66L150.31 23.67Q150.08 28.20 149.25 30.37L149.40 30.53L149.29 30.42Q148.93 31.57 148.17 32.41L148.12 32.36L148.17 32.41Q146.82 33.96 144.19 34.45L144.08 34.34L144.13 34.39Q142.61 34.74 139.61 34.97L139.48 34.84L139.66 35.02Q133.49 35.44 128.89 37.19ZM146.67 36.93L146.75 37.00L146.66 36.92Q149.51 36.69 151.15 35.20L151.17 35.22L151.07 35.12Q152.40 33.48 152.36 30.74L152.30 30.68L152.35 30.73Q152.40 29.41 152.24 25.90L152.17 25.83L151.83 21.30L151.82 21.29Q151.51 18.89 150.56 16.80L150.69 16.92L150.62 16.85Q150.06 15.88 149.38 15.23L149.55 15.41L149.33 15.03L149.33 15.03Q147.78 12.23 143.37 11.85L143.25 11.73L143.30 11.78Q140.58 11.61 133.57 10.89L133.56 10.88L133.58 10.89Q130.28 10.41 126.59 8.40L126.75 8.55L126.59 8.39Q131.48 15.83 131.48 24.59L131.40 24.52L131.51 24.62Q131.46 31.58 128.11 37.74L128.19 37.82L128.21 37.84Q128.77 37.46 130.10 36.96L130.18 37.04L130.17 37.02Q129.88 37.92 129.00 39.40L128.91 39.31L128.90 39.30Q132.03 38.31 135.38 37.82L135.43 37.87L135.37 37.81Q137.40 37.45 141.06 37.33L141.09 37.37L140.97 37.25Q145.01 37.28 146.84 37.09ZM146.85 23.45L146.89 23.48L146.89 23.49Q146.41 31.37 139.71 31.75L139.73 31.78L139.64 31.69Q137.77 31.88 135.72 32.14L135.76 32.18L135.76 32.19Q136.39 28.25 136.39 24.60L136.35 24.55L136.41 24.61Q136.33 20.84 135.60 16.99L135.62 17.01L135.70 17.09Q137.95 17.44 142.64 17.44L142.65 17.45L142.56 17.36Q144.04 17.32 145.68 18.27L145.67 18.26L145.56 18.16Q146.90 20.49 146.75 23.34Z"/></svg>